<?xml version="1.0" encoding="UTF-8" standalone="no"?>
<!DOCTYPE svg PUBLIC "-//W3C//DTD SVG 1.1//EN"
 "http://www.w3.org/Graphics/SVG/1.1/DTD/svg11.dtd">
<!-- Generated by graphviz version 2.40.1 (20161225.0304)
 -->
<!-- Title: calls Pages: 1 -->
<svg width="736pt" height="295pt"
 viewBox="0.00 0.00 735.53 295.48" xmlns="http://www.w3.org/2000/svg" xmlns:xlink="http://www.w3.org/1999/xlink">
<g id="graph0" class="graph" transform="scale(1 1) rotate(0) translate(4 291.4802)">
<title>calls</title>
<polygon fill="#ffffff" stroke="transparent" points="-4,4 -4,-291.4802 731.5263,-291.4802 731.5263,4 -4,4"/>
<!-- func_344c0 -->
<g id="node1" class="node">
<title>func_344c0</title>
<ellipse fill="none" stroke="#000000" cx="205.7445" cy="-170.8701" rx="77.5641" ry="26.7407"/>
<text text-anchor="middle" x="205.7445" y="-174.6701" font-family="Times,serif" font-size="14.00" fill="#000000">helper_printf</text>
<text text-anchor="middle" x="205.7445" y="-159.6701" font-family="Times,serif" font-size="14.00" fill="#000000">(func_344c0)</text>
</g>
<!-- func_34288 -->
<g id="node5" class="node">
<title>func_34288</title>
<ellipse fill="none" stroke="#000000" cx="205.7445" cy="-90" rx="65.7887" ry="18"/>
<text text-anchor="middle" x="205.7445" y="-86.3" font-family="Times,serif" font-size="14.00" fill="#000000">func_34288</text>
</g>
<!-- func_344c0&#45;&gt;func_34288 -->
<g id="edge3" class="edge">
<title>func_344c0&#45;&gt;func_34288</title>
<path fill="none" stroke="#000000" d="M205.7445,-143.9415C205.7445,-135.6709 205.7445,-126.5487 205.7445,-118.1957"/>
<polygon fill="#000000" stroke="#000000" points="209.2446,-118.1488 205.7445,-108.1488 202.2446,-118.1489 209.2446,-118.1488"/>
</g>
<!-- func_156b0 -->
<g id="node2" class="node">
<title>func_156b0</title>
<ellipse fill="none" stroke="#000000" cx="427.7445" cy="-170.8701" rx="126.6443" ry="26.7407"/>
<text text-anchor="middle" x="427.7445" y="-174.6701" font-family="Times,serif" font-size="14.00" fill="#000000">helper_printf_strcpy??</text>
<text text-anchor="middle" x="427.7445" y="-159.6701" font-family="Times,serif" font-size="14.00" fill="#000000">(func_156b0)</text>
</g>
<!-- func_3484c -->
<g id="node3" class="node">
<title>func_3484c</title>
<ellipse fill="none" stroke="#000000" cx="649.7445" cy="-170.8701" rx="77.5641" ry="26.7407"/>
<text text-anchor="middle" x="649.7445" y="-174.6701" font-family="Times,serif" font-size="14.00" fill="#000000">helper_printf</text>
<text text-anchor="middle" x="649.7445" y="-159.6701" font-family="Times,serif" font-size="14.00" fill="#000000">(func_3484c)</text>
</g>
<!-- func_8c60 -->
<g id="node9" class="node">
<title>func_8c60</title>
<ellipse fill="none" stroke="#000000" cx="649.7445" cy="-90" rx="59.2899" ry="18"/>
<text text-anchor="middle" x="649.7445" y="-86.3" font-family="Times,serif" font-size="14.00" fill="#000000">func_8c60</text>
</g>
<!-- func_3484c&#45;&gt;func_8c60 -->
<g id="edge8" class="edge">
<title>func_3484c&#45;&gt;func_8c60</title>
<path fill="none" stroke="#000000" d="M649.7445,-143.9415C649.7445,-135.6709 649.7445,-126.5487 649.7445,-118.1957"/>
<polygon fill="#000000" stroke="#000000" points="653.2446,-118.1488 649.7445,-108.1488 646.2446,-118.1489 653.2446,-118.1488"/>
</g>
<!-- func_65f0 -->
<g id="node4" class="node">
<title>func_65f0</title>
<ellipse fill="none" stroke="#000000" cx="427.7445" cy="-260.6102" rx="69.0935" ry="26.7407"/>
<text text-anchor="middle" x="427.7445" y="-264.4102" font-family="Times,serif" font-size="14.00" fill="#000000">printf()</text>
<text text-anchor="middle" x="427.7445" y="-249.4102" font-family="Times,serif" font-size="14.00" fill="#000000">(func_65f0)</text>
</g>
<!-- func_65f0&#45;&gt;func_344c0 -->
<g id="edge2" class="edge">
<title>func_65f0&#45;&gt;func_344c0</title>
<path fill="none" stroke="#000000" d="M379.5738,-241.1379C346.211,-227.6515 301.5569,-209.6007 265.8617,-195.1715"/>
<polygon fill="#000000" stroke="#000000" points="267.1043,-191.8987 256.5214,-191.3958 264.4808,-198.3885 267.1043,-191.8987"/>
</g>
<!-- func_65f0&#45;&gt;func_156b0 -->
<g id="edge1" class="edge">
<title>func_65f0&#45;&gt;func_156b0</title>
<path fill="none" stroke="#000000" d="M427.7445,-233.6852C427.7445,-225.6102 427.7445,-216.607 427.7445,-207.9961"/>
<polygon fill="#000000" stroke="#000000" points="431.2446,-207.776 427.7445,-197.776 424.2446,-207.7761 431.2446,-207.776"/>
</g>
<!-- func_65f0&#45;&gt;func_3484c -->
<g id="edge7" class="edge">
<title>func_65f0&#45;&gt;func_3484c</title>
<path fill="none" stroke="#000000" d="M475.9152,-241.1379C509.278,-227.6515 553.9322,-209.6007 589.6274,-195.1715"/>
<polygon fill="#000000" stroke="#000000" points="591.0082,-198.3885 598.9676,-191.3958 588.3847,-191.8987 591.0082,-198.3885"/>
</g>
<!-- func_3afcc -->
<g id="node6" class="node">
<title>func_3afcc</title>
<ellipse fill="none" stroke="#000000" cx="61.7445" cy="-18" rx="61.99" ry="18"/>
<text text-anchor="middle" x="61.7445" y="-14.3" font-family="Times,serif" font-size="14.00" fill="#000000">func_3afcc</text>
</g>
<!-- func_34288&#45;&gt;func_3afcc -->
<g id="edge4" class="edge">
<title>func_34288&#45;&gt;func_3afcc</title>
<path fill="none" stroke="#000000" d="M174.1431,-74.1993C153.0412,-63.6484 125.0942,-49.6748 102.3468,-38.3012"/>
<polygon fill="#000000" stroke="#000000" points="103.7818,-35.1055 93.2722,-33.7638 100.6512,-41.3665 103.7818,-35.1055"/>
</g>
<!-- func_3ab8c -->
<g id="node7" class="node">
<title>func_3ab8c</title>
<ellipse fill="none" stroke="#000000" cx="205.7445" cy="-18" rx="64.189" ry="18"/>
<text text-anchor="middle" x="205.7445" y="-14.3" font-family="Times,serif" font-size="14.00" fill="#000000">func_3ab8c</text>
</g>
<!-- func_34288&#45;&gt;func_3ab8c -->
<g id="edge5" class="edge">
<title>func_34288&#45;&gt;func_3ab8c</title>
<path fill="none" stroke="#000000" d="M205.7445,-71.8314C205.7445,-64.131 205.7445,-54.9743 205.7445,-46.4166"/>
<polygon fill="#000000" stroke="#000000" points="209.2446,-46.4132 205.7445,-36.4133 202.2446,-46.4133 209.2446,-46.4132"/>
</g>
<!-- func_3ab68 -->
<g id="node8" class="node">
<title>func_3ab68</title>
<ellipse fill="none" stroke="#000000" cx="352.7445" cy="-18" rx="64.9885" ry="18"/>
<text text-anchor="middle" x="352.7445" y="-14.3" font-family="Times,serif" font-size="14.00" fill="#000000">func_3ab68</text>
</g>
<!-- func_34288&#45;&gt;func_3ab68 -->
<g id="edge6" class="edge">
<title>func_34288&#45;&gt;func_3ab68</title>
<path fill="none" stroke="#000000" d="M238.0043,-74.1993C259.5458,-63.6484 288.0751,-49.6748 311.2963,-38.3012"/>
<polygon fill="#000000" stroke="#000000" points="313.1189,-41.3058 320.56,-33.7638 310.0398,-35.0194 313.1189,-41.3058"/>
</g>
</g>
</svg>
